<svg width="164" height="182" viewBox="0 0 164 182" fill="none" xmlns="http://www.w3.org/2000/svg">
<g filter="url(#filter0_d_15_47)">
<path d="M30 26C30 26 74.6499 52.5856 53.7386 88.1913C32.8273 123.797 74.6499 133.767 74.6499 133.767C74.6499 133.767 65.3976 97.2505 103.233 79.1712C141.069 61.0918 132.191 42.9702 130.094 26" stroke="#0066FF" stroke-width="10" stroke-linecap="round"/>
<path d="M88.3877 143.261L86.8242 148.011L100.335 152.458L92.579 140.535L88.3877 143.261ZM135.873 30.7645C135.096 28.1147 132.318 26.5966 129.668 27.3738C127.018 28.1509 125.5 30.9291 126.277 33.5789L135.873 30.7645ZM39.8125 33.5959C37.5472 38.0533 37.5457 38.0525 37.5444 38.0519C37.5443 38.0518 37.5432 38.0512 37.5428 38.051C37.5421 38.0507 37.542 38.0507 37.5428 38.051C37.5442 38.0518 37.5485 38.054 37.5556 38.0576C37.5698 38.065 37.5953 38.0782 37.6316 38.0972C37.7043 38.1353 37.8202 38.1965 37.9758 38.2806C38.2871 38.4488 38.7565 38.7079 39.3556 39.0544C40.5552 39.7482 42.2671 40.788 44.2666 42.1459C48.2896 44.8779 53.3589 48.8183 57.7644 53.7289C62.1855 58.6568 65.7278 64.3268 67.093 70.5223C68.4252 76.5682 67.7771 83.5029 63.1649 91.3561L71.7878 96.4203C77.6313 86.4706 78.753 76.9674 76.8587 68.3704C74.9973 59.9231 70.3167 52.7454 65.2079 47.0509C60.0835 41.3391 54.316 36.8825 49.8847 33.8732C47.6569 32.3603 45.7373 31.1933 44.3621 30.3979C43.6739 29.9999 43.1201 29.6938 42.73 29.483C42.5349 29.3776 42.3806 29.2959 42.2708 29.2384C42.2158 29.2096 42.172 29.1869 42.1397 29.1702C42.1235 29.1619 42.1102 29.1551 42.0999 29.1498C42.0948 29.1471 42.0903 29.1449 42.0866 29.143C42.0848 29.142 42.0826 29.1409 42.0817 29.1405C42.0796 29.1394 42.0778 29.1385 39.8125 33.5959ZM63.1649 91.3561C57.4828 101.031 55.7878 109.725 56.9813 117.393C58.1674 125.014 62.1078 130.987 66.5433 135.451C70.9598 139.896 76.0253 143.013 79.8942 145.001C81.8463 146.004 83.5381 146.743 84.7567 147.236C85.3671 147.482 85.8617 147.669 86.2144 147.797C86.3908 147.861 86.532 147.911 86.6346 147.946C86.686 147.964 86.7277 147.978 86.7594 147.989C86.7753 147.994 86.7887 147.999 86.7995 148.002C86.8049 148.004 86.8097 148.006 86.8138 148.007C86.8159 148.008 86.8185 148.009 86.8195 148.009C86.8219 148.01 86.8242 148.011 88.3877 143.261C89.9511 138.512 89.953 138.513 89.9548 138.513C89.9552 138.513 89.9569 138.514 89.9577 138.514C89.9593 138.515 89.9602 138.515 89.9606 138.515C89.9613 138.515 89.9596 138.515 89.9554 138.513C89.9471 138.511 89.9291 138.505 89.902 138.495C89.8477 138.476 89.7565 138.444 89.6318 138.399C89.382 138.308 88.9985 138.164 88.5061 137.965C87.5193 137.566 86.1071 136.951 84.465 136.107C81.1457 134.401 77.0625 131.85 73.6372 128.403C70.231 124.975 67.6366 120.83 66.8623 115.855C66.0954 110.927 67.0143 104.548 71.7878 96.4203L63.1649 91.3561ZM88.3877 143.261C92.579 140.535 92.5804 140.537 92.5818 140.539C92.5821 140.54 92.5834 140.542 92.5841 140.543C92.5855 140.545 92.5866 140.547 92.5874 140.548C92.5891 140.551 92.5896 140.551 92.5889 140.55C92.5876 140.548 92.5818 140.539 92.5718 140.523C92.5517 140.491 92.5147 140.431 92.4633 140.345C92.3602 140.173 92.1996 139.896 91.9994 139.526C91.5981 138.782 91.0443 137.674 90.479 136.282C89.3374 133.471 88.2109 129.658 88.0917 125.45C87.9741 121.297 88.833 116.767 91.6589 112.306C94.4954 107.829 99.5322 103.079 108.332 98.8743L104.021 89.8515C93.9034 94.6861 87.2575 100.568 83.2115 106.955C79.1548 113.358 77.9312 119.922 78.0957 125.733C78.2588 131.49 79.7792 136.512 81.214 140.045C81.9369 141.825 82.6538 143.265 83.2009 144.278C83.475 144.785 83.7081 145.189 83.8802 145.477C83.9664 145.621 84.0374 145.736 84.0908 145.822C84.1176 145.864 84.1399 145.9 84.1576 145.928C84.1665 145.941 84.1741 145.953 84.1806 145.963C84.1838 145.968 84.1868 145.973 84.1894 145.977C84.1907 145.979 84.1924 145.982 84.1931 145.983C84.1947 145.985 84.1963 145.988 88.3877 143.261ZM108.332 98.8743C129.24 88.8838 136.156 71.5105 137.783 57.0466C138.59 49.8725 138.119 43.3547 137.456 38.6499C137.124 36.2884 136.74 34.3594 136.435 33.0029C136.281 32.324 136.148 31.7866 136.049 31.4082C135.999 31.2189 135.959 31.0692 135.929 30.9612C135.914 30.9072 135.901 30.8637 135.892 30.8308C135.887 30.8144 135.883 30.8006 135.88 30.7895C135.878 30.784 135.877 30.7791 135.876 30.775C135.875 30.7729 135.874 30.7702 135.874 30.7692C135.873 30.7667 135.873 30.7645 131.075 32.1717C126.277 33.5789 126.276 33.5769 126.276 33.5751C126.276 33.5748 126.275 33.5731 126.275 33.5724C126.275 33.5709 126.274 33.5701 126.274 33.5699C126.274 33.5695 126.275 33.5718 126.276 33.5766C126.279 33.5863 126.285 33.6063 126.293 33.6363C126.31 33.6964 126.337 33.7966 126.373 33.9348C126.445 34.2113 126.552 34.6394 126.679 35.202C126.933 36.3284 127.265 37.9869 127.554 40.0434C128.135 44.1745 128.534 49.8147 127.846 55.9285C126.483 68.0403 120.949 81.7627 104.021 89.8515L108.332 98.8743Z" fill="#0066FF"/>
</g>
<defs>
<filter id="filter0_d_15_47" x="-0.000976562" y="-0.000762939" width="163.21" height="181.459" filterUnits="userSpaceOnUse" color-interpolation-filters="sRGB">
<feFlood flood-opacity="0" result="BackgroundImageFix"/>
<feColorMatrix in="SourceAlpha" type="matrix" values="0 0 0 0 0 0 0 0 0 0 0 0 0 0 0 0 0 0 127 0" result="hardAlpha"/>
<feOffset dy="4"/>
<feGaussianBlur stdDeviation="12.5"/>
<feComposite in2="hardAlpha" operator="out"/>
<feColorMatrix type="matrix" values="0 0 0 0 0 0 0 0 0 0.4 0 0 0 0 1 0 0 0 0.5 0"/>
<feBlend mode="normal" in2="BackgroundImageFix" result="effect1_dropShadow_15_47"/>
<feBlend mode="normal" in="SourceGraphic" in2="effect1_dropShadow_15_47" result="shape"/>
</filter>
</defs>
</svg>
